HIERARCHY
ROOT root
{
	OFFSET 0.000000 0.000000 0.000000
	CHANNELS 6 Xposition Yposition Zposition Zrotation Yrotation Xrotation
	JOINT lhip
	{
		OFFSET 0.058581 -0.082280 -0.017664
		CHANNELS 3 Zrotation Yrotation Xrotation
		JOINT lknee
		{
			OFFSET 0.043451 -0.386469 0.008037
			CHANNELS 3 Zrotation Yrotation Xrotation
			JOINT lankle
			{
				OFFSET -0.014790 -0.426874 -0.037428
				CHANNELS 3 Zrotation Yrotation Xrotation
				JOINT ltoe
				{
					OFFSET 0.041054 -0.060286 0.122042
					CHANNELS 3 Zrotation Yrotation Xrotation
					End Site
					{
						OFFSET 0.000000 0.000000 0.000000
					}
				}
			}
		}
	}
	JOINT rhip
	{
		OFFSET -0.060310 -0.090513 -0.013543
		CHANNELS 3 Zrotation Yrotation Xrotation
		JOINT rknee
		{
			OFFSET -0.043257 -0.383688 -0.004843
			CHANNELS 3 Zrotation Yrotation Xrotation
			JOINT rankle
			{
				OFFSET 0.019056 -0.420046 -0.034562
				CHANNELS 3 Zrotation Yrotation Xrotation
				JOINT rtoe
				{
					OFFSET -0.034840 -0.062106 0.130323
					CHANNELS 3 Zrotation Yrotation Xrotation
					End Site
					{
						OFFSET 0.000000 0.000000 0.000000
					}
				}
			}
		}
	}
	JOINT lowerback
	{
		OFFSET 0.004439 0.124404 -0.038385
		CHANNELS 3 Zrotation Yrotation Xrotation
		JOINT upperback
		{
			OFFSET 0.004488 0.137956 0.026820
			CHANNELS 3 Zrotation Yrotation Xrotation
			JOINT chest
			{
				OFFSET -0.002265 0.056032 0.002855
				CHANNELS 3 Zrotation Yrotation Xrotation
				JOINT lowerneck
				{
					OFFSET -0.013390 0.211636 -0.033468
					CHANNELS 3 Zrotation Yrotation Xrotation
					JOINT upperneck
					{
						OFFSET 0.010113 0.088937 0.050410
						CHANNELS 3 Zrotation Yrotation Xrotation
						End Site
						{
							OFFSET 0.000000 0.000000 0.000000
						}
					}
				}
				JOINT lclavicle
				{
					OFFSET 0.071702 0.114000 -0.018898
					CHANNELS 3 Zrotation Yrotation Xrotation
					JOINT lshoulder
					{
						OFFSET 0.122921 0.045205 -0.019046
						CHANNELS 3 Zrotation Yrotation Xrotation
						JOINT lelbow
						{
							OFFSET 0.255332 -0.015649 -0.022946
							CHANNELS 3 Zrotation Yrotation Xrotation
							JOINT lwrist
							{
								OFFSET 0.265709 0.012698 -0.007375
								CHANNELS 3 Zrotation Yrotation Xrotation
								End Site
								{
									OFFSET 0.000000 0.000000 0.000000
								}
							}
						}
					}
				}
				JOINT rclavicle
				{
					OFFSET -0.082954 0.112472 -0.023707
					CHANNELS 3 Zrotation Yrotation Xrotation
					JOINT rshoulder
					{
						OFFSET -0.113228 0.046853 -0.008472
						CHANNELS 3 Zrotation Yrotation Xrotation
						JOINT relbow
						{
							OFFSET -0.260127 -0.014369 -0.031269
							CHANNELS 3 Zrotation Yrotation Xrotation
							JOINT rwrist
							{
								OFFSET -0.269108 0.006794 -0.006027
								CHANNELS 3 Zrotation Yrotation Xrotation
								End Site
								{
									OFFSET 0.000000 0.000000 0.000000
								}
							}
						}
					}
				}
			}
		}
	}
}
MOTION
Frames: 12
Frame Time: 0.033333
2.360650 0.685792 0.993468 -91.861436 0.745434 83.552289 -1.325962 1.092036 4.204514 0.894873 -5.419635 3.004059 0.712482 12.875331 -10.337186 0.000000 -0.000000 0.000000 1.246039 -0.113982 -0.001231 -3.059966 0.949307 9.417948 1.246380 -9.893741 -13.131568 0.000000 -0.000000 0.000000 -2.584093 1.845963 7.264246 0.151853 -2.023823 5.780541 -1.236508 0.454922 -1.877534 5.616557 -4.877824 2.699052 6.685584 -4.140508 14.369623 -28.030083 -5.762644 0.538892 -51.838749 -10.016934 17.788732 -1.130059 -20.922189 10.111000 -6.032045 -4.518878 6.239832 25.848973 7.959751 0.882967 57.259569 4.628088 21.746254 -1.477142 25.318425 10.831565 3.128614 4.352079 5.206844 
2.361224 0.685278 0.993398 -92.180691 0.745000 83.548358 -1.350812 1.103905 4.136953 0.804686 -5.287931 3.134453 0.692221 13.020961 -10.355948 0.000000 -0.000000 0.000000 1.228649 0.238852 -0.157637 -3.009802 1.044659 9.603043 1.304511 -9.941838 -13.060859 0.000000 -0.000000 0.000000 -2.509606 2.033213 7.545004 0.160529 -1.833819 5.512945 -1.196981 0.339333 -1.852562 5.486695 -4.983928 3.168435 6.581733 -3.940943 14.440467 -28.097911 -5.683722 0.533287 -51.924124 -10.059242 18.099424 -1.037506 -20.633764 10.227963 -5.812621 -4.480096 6.500352 25.764153 7.845623 0.858672 57.318325 4.641426 21.950329 -1.653547 25.381491 10.828960 3.519668 4.274332 4.967286 
2.360010 0.684172 0.993646 -91.894384 0.836535 83.541433 -1.383966 1.003518 4.231834 0.896148 -5.281158 3.117322 0.788938 12.947309 -10.458741 0.000000 -0.000000 0.000000 1.183151 -0.087673 0.133404 -3.000100 0.942762 9.302858 1.327910 -9.900592 -13.056151 0.000000 -0.000000 0.000000 -2.473397 1.914563 7.133525 0.268150 -2.093616 5.944225 -1.181308 0.281092 -1.895874 5.510312 -4.896662 3.671787 6.536875 -3.874686 14.776363 -28.198066 -5.631137 0.580961 -51.924762 -10.016928 18.019067 -0.849750 -20.472203 10.064549 -6.069414 -4.668200 6.607368 25.805278 7.739705 0.770187 57.222674 4.602029 21.878463 -1.648557 25.321035 10.895700 3.787132 4.419564 5.297045 
2.359203 0.682995 0.993547 -91.951792 0.897840 83.474927 -1.362476 0.972394 4.422225 0.891528 -5.180051 2.961679 0.785136 12.898679 -10.425079 0.000000 -0.000000 0.000000 1.172670 -0.246498 0.282329 -3.012677 1.091209 9.188307 1.499721 -9.704403 -12.975686 0.000000 -0.000000 0.000000 -2.405379 1.954076 6.848521 0.324448 -2.205907 6.386125 -1.188722 0.197878 -1.818018 5.383258 -4.630004 3.897556 6.309528 -3.836432 15.090430 -27.983749 -5.577631 0.558304 -51.939851 -10.070693 17.916033 -1.109636 -20.635308 10.172478 -6.410507 -4.480609 6.621074 25.724172 7.684855 0.753184 57.267645 4.744398 21.836724 -1.794055 25.395198 10.684688 4.035362 4.349496 5.491150 
2.358724 0.682268 0.993643 -91.911232 0.904506 83.472525 -1.396085 0.989261 4.450731 0.885793 -5.217030 2.960946 0.783456 12.823277 -10.429659 0.000000 -0.000000 0.000000 1.136697 -0.324389 0.323534 -3.028296 1.077685 9.168582 1.422983 -9.666959 -12.854301 0.000000 -0.000000 0.000000 -2.446925 1.955331 6.730131 0.389227 -2.298898 6.497443 -1.157001 0.173734 -1.807138 5.378529 -4.749544 4.381431 6.293833 -3.795888 14.901444 -27.957478 -5.549466 0.544335 -51.910796 -10.101709 17.909336 -1.261617 -20.629744 9.983132 -6.482769 -4.219840 6.604719 25.684578 7.657853 0.790885 57.271977 4.755444 21.827257 -1.847406 25.396790 10.477247 4.135575 4.242262 5.490631 
2.358916 0.681234 0.993916 -92.213554 0.860511 83.518380 -1.491378 1.032966 4.416184 0.822260 -5.123124 2.963664 0.891366 12.974527 -10.459609 0.000000 -0.000000 0.000000 1.054527 -0.129210 0.108722 -3.002109 1.166496 9.370122 1.485975 -9.596091 -12.959360 0.000000 -0.000000 0.000000 -2.515960 1.946653 6.887821 0.368117 -2.232424 6.251812 -1.149649 0.250324 -1.744375 5.355911 -4.633002 4.598197 6.385600 -3.767037 15.346629 -27.820021 -5.573566 0.510256 -51.960076 -10.059200 18.027341 -1.165758 -20.544904 9.930236 -6.030040 -4.312640 6.644991 25.827504 7.703073 0.871800 57.186131 4.751010 21.854190 -1.956107 25.427066 10.189818 3.405638 4.555158 5.461718 
2.357307 0.680418 0.994223 -91.687999 1.042408 83.716307 -1.353859 0.925223 4.250606 0.817924 -5.303017 3.023929 0.818109 12.692547 -10.461016 0.000000 -0.000000 0.000000 1.131221 -0.640644 0.329963 -3.032722 1.070495 8.861940 1.405048 -9.618002 -12.855595 0.000000 -0.000000 0.000000 -2.448332 1.845143 6.157530 0.496208 -2.615049 7.011238 -1.110826 0.077295 -2.045734 5.463274 -4.644167 4.670611 6.140632 -3.802679 15.840910 -27.997261 -5.472390 0.550183 -51.857788 -10.028341 17.976411 -1.172241 -20.524851 9.942635 -6.087071 -4.522669 6.969986 26.067608 7.505714 0.902626 56.832137 4.689220 21.773415 -1.939904 25.165796 10.355587 3.941565 4.775887 6.236079 
2.356915 0.679191 0.994069 -91.835681 1.006277 83.689020 -1.496345 0.949469 4.360285 0.896934 -5.301422 2.900900 0.809779 12.666555 -10.484272 0.000000 -0.000000 0.000000 0.967943 -0.713993 0.354939 -2.946644 1.174869 8.844843 1.491686 -9.449946 -12.722343 0.000000 -0.000000 0.000000 -2.417240 1.798881 6.127854 0.412348 -2.624455 7.063973 -1.140624 0.122055 -1.931071 5.483717 -4.570358 4.790815 6.034978 -3.693927 15.939079 -27.739328 -5.449585 0.535843 -51.947183 -10.132122 17.982237 -1.122658 -20.780531 10.003053 -5.966206 -4.577709 6.640472 25.898121 7.428449 0.835596 57.028788 4.939792 21.793659 -1.747483 25.285875 10.221464 3.835661 4.364417 5.621786 
2.358844 0.679060 0.993683 -92.751805 0.924136 83.626521 -1.539772 1.173656 4.431637 0.815105 -4.837683 2.729104 0.972855 13.008568 -10.334136 0.000000 -0.000000 0.000000 1.018078 0.080347 -0.132931 -3.019282 1.286215 9.438808 1.496688 -9.396476 -12.781165 0.000000 -0.000000 0.000000 -2.420162 1.939058 7.099326 0.362946 -2.111593 6.036993 -1.141516 0.278147 -1.664428 5.220817 -4.369763 5.199468 6.172923 -3.477249 15.819248 -27.668348 -5.490235 0.431621 -52.130433 -10.282793 18.126853 -0.993336 -20.531324 9.995914 -6.256092 -4.682870 6.584007 25.767555 7.589693 0.844483 57.229404 4.951681 21.920679 -2.072986 25.386743 10.136621 3.920144 4.409880 5.208550 
2.356580 0.678275 0.994049 -92.237000 1.120089 83.568648 -1.415912 1.050179 4.753633 0.902242 -5.118533 2.515520 0.945231 12.837556 -10.371417 0.000000 -0.000000 0.000000 1.081790 -0.563421 0.495209 -3.011624 1.262790 8.776959 1.458459 -9.326834 -12.654004 0.000000 -0.000000 0.000000 -2.318765 1.810551 6.245658 0.432079 -2.567520 7.204775 -1.172638 0.216417 -1.859773 5.278564 -4.135408 5.196892 6.067276 -3.520790 16.327293 -27.779907 -5.601684 0.517423 -51.965295 -10.306412 17.940680 -1.045169 -20.628845 9.969914 -6.435596 -4.739873 6.783682 25.968607 7.638067 0.921283 56.997154 5.043465 21.799653 -2.032487 25.121631 10.137329 4.192788 4.678366 5.839251 
2.356891 0.677803 0.993232 -92.508810 1.093334 83.631939 -1.489427 1.143023 4.738473 0.926595 -4.964765 2.332334 0.938612 12.935014 -10.207747 0.000000 -0.000000 0.000000 1.072543 -0.188139 0.277887 -3.026613 1.311807 8.926798 1.490867 -9.339970 -12.563368 0.000000 -0.000000 0.000000 -2.310788 1.789284 6.582471 0.418734 -2.363005 6.691732 -1.180498 0.214972 -1.615705 5.249477 -4.149387 5.068591 6.012730 -3.361963 16.628078 -27.734647 -5.521105 0.536455 -52.193931 -10.404221 18.108768 -0.761677 -20.680490 10.366041 -6.352195 -4.709590 6.957979 25.771870 7.526333 0.840681 57.122660 5.177276 21.927466 -1.931885 25.144368 10.510053 4.114543 4.576657 5.785613 
2.356196 0.677101 0.993786 -92.361004 1.114779 83.673150 -1.538268 1.084157 4.779830 0.990980 -5.102572 2.300053 1.006174 12.906819 -10.366916 0.000000 -0.000000 0.000000 0.997810 -0.517882 0.365689 -3.003908 1.371931 8.788311 1.575094 -9.332861 -12.615792 0.000000 -0.000000 0.000000 -2.312506 1.768943 6.353653 0.380059 -2.511690 7.048139 -1.251872 0.227912 -1.814925 5.362736 -4.114695 4.936141 5.959447 -3.259848 17.053998 -27.758800 -5.454659 0.436902 -52.074870 -10.489005 18.188030 -0.934081 -20.650315 10.527695 -5.993011 -4.799547 7.052874 25.965138 7.371643 0.899132 57.069942 5.250245 21.882811 -1.930254 25.180195 10.143271 3.929241 4.733888 5.770489 
